<?xml version="1.0" encoding="UTF-8"?>
<svg viewBox="0 0 924 264" width="100%" style="max-width:924px;display:block;width:100%;height:auto" font-family="-apple-system, BlinkMacSystemFont, 'Segoe UI', Helvetica, Arial, sans-serif" role="img" xmlns="http://www.w3.org/2000/svg"><rect width="100%" height="100%" rx="6" fill="#f4f4f0"/><g transform="translate(12,12)"><line x1="52" x2="884" y1="193.3" y2="193.3" stroke="#d8dbd6"/><text x="46.0" y="197.3" text-anchor="end" fill="#8a9199" font-size="10" font-weight="400" >60.0</text><line x1="52" x2="884" y1="134.4" y2="134.4" stroke="#d8dbd6"/><text x="46.0" y="138.4" text-anchor="end" fill="#8a9199" font-size="10" font-weight="400" >65.0</text><line x1="52" x2="884" y1="75.4" y2="75.4" stroke="#d8dbd6"/><text x="46.0" y="79.4" text-anchor="end" fill="#8a9199" font-size="10" font-weight="400" >70.0</text><rect x="52" y="173.3" width="832" height="1.0" fill="#9aa0a6" opacity=".18"><title>before: 61.7 ± 0.0</title></rect><line x1="52" x2="884" y1="173.3" y2="173.3" stroke="#9aa0a6" stroke-dasharray="4 3"/><text x="884.0" y="169.3" text-anchor="end" fill="#8a9199" font-size="10" font-weight="400" >before</text><text x="59.4" y="230.0" text-anchor="middle" fill="#8a9199" font-size="10" font-weight="400" >wk -12</text><text x="118.9" y="230.0" text-anchor="middle" fill="#8a9199" font-size="10" font-weight="400" >wk -8</text><text x="178.3" y="230.0" text-anchor="middle" fill="#8a9199" font-size="10" font-weight="400" >wk -4</text><text x="237.7" y="230.0" text-anchor="middle" fill="#8a9199" font-size="10" font-weight="400" >wk 0</text><text x="297.1" y="230.0" text-anchor="middle" fill="#8a9199" font-size="10" font-weight="400" >wk 4</text><text x="356.6" y="230.0" text-anchor="middle" fill="#8a9199" font-size="10" font-weight="400" >wk 8</text><text x="416.0" y="230.0" text-anchor="middle" fill="#8a9199" font-size="10" font-weight="400" >wk 12</text><text x="475.4" y="230.0" text-anchor="middle" fill="#8a9199" font-size="10" font-weight="400" >wk 16</text><text x="534.9" y="230.0" text-anchor="middle" fill="#8a9199" font-size="10" font-weight="400" >wk 20</text><text x="594.3" y="230.0" text-anchor="middle" fill="#8a9199" font-size="10" font-weight="400" >wk 24</text><text x="653.7" y="230.0" text-anchor="middle" fill="#8a9199" font-size="10" font-weight="400" >wk 28</text><text x="713.1" y="230.0" text-anchor="middle" fill="#8a9199" font-size="10" font-weight="400" >wk 32</text><text x="772.6" y="230.0" text-anchor="middle" fill="#8a9199" font-size="10" font-weight="400" >wk 36</text><text x="832.0" y="230.0" text-anchor="middle" fill="#8a9199" font-size="10" font-weight="400" >after 1</text><line x1="423.4" x2="423.4" y1="40" y2="204" stroke="#5b636b" stroke-dasharray="2 3"/><line x1="631.4" x2="631.4" y1="40" y2="204" stroke="#5b636b" stroke-dasharray="2 3"/><line x1="230.3" x2="230.3" y1="40" y2="204" stroke="#15181b"/><text x="234.3" y="50.0" text-anchor="start" fill="#15181b" font-size="10" font-weight="600" >week zero</text><line x1="809.7" x2="809.7" y1="40" y2="204" stroke="#15181b"/><text x="813.7" y="50.0" text-anchor="start" fill="#15181b" font-size="10" font-weight="600" >born</text><polyline points="252.6,185.1 490.3,147.3 505.1,137.3 520.0,128.5 534.9,126.1 549.7,119.1 564.6,115.2 579.4,106.9 594.3,104.4 609.1,98.1 624.0,95.7 638.9,91.9 653.7,95.3 668.6,87.4 683.4,84.0 698.3,83.1 713.1,81.0 728.0,74.5 742.9,69.8 757.7,66.4 772.6,64.2 787.4,60.1 802.3,58.9 817.1,134.4 846.9,167.4 861.7,167.8" fill="none" stroke="#5b636b" stroke-width="2" stroke-linejoin="round"/><circle cx="252.6" cy="185.1" r="3" fill="#5b636b" stroke="#f4f4f0" stroke-width="1.5"><title>wk 1, 2025-11-18: 60.7, 1 of 7 days</title></circle><circle cx="490.3" cy="147.3" r="3" fill="#5b636b" stroke="#f4f4f0" stroke-width="1.5"><title>wk 17, 2026-03-10: 63.9, 1 of 7 days</title></circle><circle cx="505.1" cy="137.3" r="3" fill="#5b636b" stroke="#f4f4f0" stroke-width="1.5"><title>wk 18, 2026-03-17: 64.8, 2 of 7 days</title></circle><circle cx="520.0" cy="128.5" r="3" fill="#5b636b" stroke="#f4f4f0" stroke-width="1.5"><title>wk 19, 2026-03-24: 65.5, 1 of 7 days</title></circle><circle cx="534.9" cy="126.1" r="3" fill="#5b636b" stroke="#f4f4f0" stroke-width="1.5"><title>wk 20, 2026-03-31: 65.7, 1 of 7 days</title></circle><circle cx="549.7" cy="119.1" r="3" fill="#5b636b" stroke="#f4f4f0" stroke-width="1.5"><title>wk 21, 2026-04-07: 66.3, 4 of 7 days</title></circle><circle cx="564.6" cy="115.2" r="3" fill="#5b636b" stroke="#f4f4f0" stroke-width="1.5"><title>wk 22, 2026-04-14: 66.6, 4 of 7 days</title></circle><circle cx="579.4" cy="106.9" r="3" fill="#5b636b" stroke="#f4f4f0" stroke-width="1.5"><title>wk 23, 2026-04-21: 67.3, 3 of 7 days</title></circle><circle cx="594.3" cy="104.4" r="3" fill="#5b636b" stroke="#f4f4f0" stroke-width="1.5"><title>wk 24, 2026-04-28: 67.5, 5 of 7 days</title></circle><circle cx="609.1" cy="98.1" r="3" fill="#5b636b" stroke="#f4f4f0" stroke-width="1.5"><title>wk 25, 2026-05-05: 68.1, 5 of 7 days</title></circle><circle cx="624.0" cy="95.7" r="3" fill="#5b636b" stroke="#f4f4f0" stroke-width="1.5"><title>wk 26, 2026-05-12: 68.3, 5 of 7 days</title></circle><circle cx="638.9" cy="91.9" r="3" fill="#5b636b" stroke="#f4f4f0" stroke-width="1.5"><title>wk 27, 2026-05-19: 68.6, 2 of 7 days</title></circle><circle cx="653.7" cy="95.3" r="3" fill="#5b636b" stroke="#f4f4f0" stroke-width="1.5"><title>wk 28, 2026-05-26: 68.3, 6 of 7 days</title></circle><circle cx="668.6" cy="87.4" r="3" fill="#5b636b" stroke="#f4f4f0" stroke-width="1.5"><title>wk 29, 2026-06-02: 69.0, 6 of 7 days</title></circle><circle cx="683.4" cy="84.0" r="3" fill="#5b636b" stroke="#f4f4f0" stroke-width="1.5"><title>wk 30, 2026-06-09: 69.3, 4 of 7 days</title></circle><circle cx="698.3" cy="83.1" r="3" fill="#5b636b" stroke="#f4f4f0" stroke-width="1.5"><title>wk 31, 2026-06-16: 69.3, 6 of 7 days</title></circle><circle cx="713.1" cy="81.0" r="3" fill="#5b636b" stroke="#f4f4f0" stroke-width="1.5"><title>wk 32, 2026-06-23: 69.5, 4 of 7 days</title></circle><circle cx="728.0" cy="74.5" r="3" fill="#5b636b" stroke="#f4f4f0" stroke-width="1.5"><title>wk 33, 2026-06-30: 70.1, 5 of 7 days</title></circle><circle cx="742.9" cy="69.8" r="3" fill="#5b636b" stroke="#f4f4f0" stroke-width="1.5"><title>wk 34, 2026-07-07: 70.5, 4 of 7 days</title></circle><circle cx="757.7" cy="66.4" r="3" fill="#5b636b" stroke="#f4f4f0" stroke-width="1.5"><title>wk 35, 2026-07-14: 70.8, 3 of 7 days</title></circle><circle cx="772.6" cy="64.2" r="3" fill="#5b636b" stroke="#f4f4f0" stroke-width="1.5"><title>wk 36, 2026-07-21: 70.9, 4 of 7 days</title></circle><circle cx="787.4" cy="60.1" r="3" fill="#5b636b" stroke="#f4f4f0" stroke-width="1.5"><title>wk 37, 2026-07-28: 71.3, 3 of 7 days</title></circle><circle cx="802.3" cy="58.9" r="3" fill="#5b636b" stroke="#f4f4f0" stroke-width="1.5"><title>wk 38, 2026-08-04: 71.4, 2 of 7 days</title></circle><circle cx="817.1" cy="134.4" r="3" fill="#5b636b" stroke="#f4f4f0" stroke-width="1.5"><title>after 0, 2026-08-08: 65.0, 1 of 7 days</title></circle><circle cx="846.9" cy="167.4" r="3" fill="#5b636b" stroke="#f4f4f0" stroke-width="1.5"><title>after 2, 2026-08-22: 62.2, 1 of 7 days</title></circle><circle cx="861.7" cy="167.8" r="3" fill="#5b636b" stroke="#f4f4f0" stroke-width="1.5"><title>after 3, 2026-08-29: 62.2, 3 of 7 days</title></circle><text x="52.0" y="18.0" text-anchor="start" fill="#15181b" font-size="12" font-weight="600" >weight, weekly mean, kg</text></g></svg>